<svg width="288" height="48" viewBox="0 0 288 48" fill="none" xmlns="http://www.w3.org/2000/svg">
<path d="M0 4C0 1.79086 1.79086 0 4 0H143V48H4C1.79086 48 0 46.2091 0 44V4Z" fill="#F2F2F2"/>
<path d="M20.72 24.682C20.72 22.474 21.098 20.836 21.854 19.768C22.61 18.688 23.696 18.148 25.112 18.148C26.624 18.148 27.734 18.682 28.442 19.75C29.15 20.806 29.504 22.45 29.504 24.682C29.504 26.902 29.12 28.552 28.352 29.632C27.596 30.712 26.51 31.252 25.094 31.252C23.594 31.252 22.49 30.688 21.782 29.56C21.074 28.42 20.72 26.794 20.72 24.682ZM23.06 24.682C23.06 26.146 23.216 27.28 23.528 28.084C23.852 28.876 24.38 29.272 25.112 29.272C25.82 29.272 26.336 28.906 26.66 28.174C26.996 27.442 27.164 26.278 27.164 24.682C27.164 23.23 27.008 22.108 26.696 21.316C26.384 20.524 25.85 20.128 25.094 20.128C24.374 20.128 23.852 20.5 23.528 21.244C23.216 21.988 23.06 23.134 23.06 24.682Z" fill="black"/>
<g opacity="0.3">
<path d="M107.341 26.5C107.341 24.976 107.677 23.812 108.349 23.008C109.033 22.192 110.011 21.784 111.283 21.784C111.955 21.784 112.537 21.898 113.029 22.126C113.533 22.342 113.947 22.66 114.271 23.08C114.595 23.488 114.835 23.986 114.991 24.574C115.147 25.15 115.225 25.792 115.225 26.5C115.225 28.024 114.883 29.194 114.199 30.01C113.527 30.814 112.555 31.216 111.283 31.216C110.611 31.216 110.023 31.108 109.519 30.892C109.027 30.664 108.619 30.346 108.295 29.938C107.971 29.518 107.731 29.02 107.575 28.444C107.419 27.856 107.341 27.208 107.341 26.5ZM108.835 26.5C108.835 26.956 108.877 27.394 108.961 27.814C109.057 28.234 109.201 28.6 109.393 28.912C109.585 29.224 109.837 29.476 110.149 29.668C110.461 29.86 110.839 29.956 111.283 29.956C112.915 29.968 113.731 28.816 113.731 26.5C113.731 26.032 113.683 25.588 113.587 25.168C113.503 24.748 113.365 24.382 113.173 24.07C112.981 23.758 112.729 23.512 112.417 23.332C112.105 23.14 111.727 23.044 111.283 23.044C109.651 23.032 108.835 24.184 108.835 26.5ZM122.956 23.26H120.13V31H118.69V23.26H115.864V22H122.956V23.26Z" fill="black"/>
</g>
<path d="M145 0H284C286.209 0 288 1.79086 288 4V44C288 46.2091 286.209 48 284 48H145V0Z" fill="#F2F2F2"/>
<path d="M165.81 22.342C165.81 21.73 165.9 21.166 166.08 20.65C166.272 20.134 166.542 19.696 166.89 19.336C167.25 18.964 167.682 18.676 168.186 18.472C168.702 18.256 169.29 18.148 169.95 18.148C171.306 18.148 172.368 18.556 173.136 19.372C173.916 20.176 174.306 21.352 174.306 22.9C174.306 24.292 174.126 25.498 173.766 26.518C173.418 27.526 172.944 28.372 172.344 29.056C171.756 29.728 171.072 30.244 170.292 30.604C169.512 30.964 168.69 31.18 167.826 31.252L167.322 29.416C167.982 29.332 168.57 29.17 169.086 28.93C169.602 28.69 170.046 28.396 170.418 28.048C170.79 27.688 171.09 27.286 171.318 26.842C171.558 26.386 171.726 25.9 171.822 25.384C171.534 25.696 171.222 25.912 170.886 26.032C170.562 26.152 170.124 26.212 169.572 26.212C169.116 26.212 168.66 26.134 168.204 25.978C167.76 25.822 167.358 25.588 166.998 25.276C166.65 24.952 166.362 24.55 166.134 24.07C165.918 23.578 165.81 23.002 165.81 22.342ZM168.078 22.216C168.078 22.9 168.27 23.416 168.654 23.764C169.038 24.112 169.518 24.286 170.094 24.286C170.586 24.286 170.988 24.208 171.3 24.052C171.612 23.896 171.852 23.704 172.02 23.476C172.056 23.224 172.074 22.984 172.074 22.756C172.074 22.42 172.032 22.09 171.948 21.766C171.864 21.442 171.732 21.154 171.552 20.902C171.384 20.65 171.162 20.452 170.886 20.308C170.622 20.152 170.304 20.074 169.932 20.074C169.344 20.074 168.888 20.266 168.564 20.65C168.24 21.022 168.078 21.544 168.078 22.216ZM175.933 24.682C175.933 22.474 176.311 20.836 177.067 19.768C177.823 18.688 178.909 18.148 180.325 18.148C181.837 18.148 182.947 18.682 183.655 19.75C184.363 20.806 184.717 22.45 184.717 24.682C184.717 26.902 184.333 28.552 183.565 29.632C182.809 30.712 181.723 31.252 180.307 31.252C178.807 31.252 177.703 30.688 176.995 29.56C176.287 28.42 175.933 26.794 175.933 24.682ZM178.273 24.682C178.273 26.146 178.429 27.28 178.741 28.084C179.065 28.876 179.593 29.272 180.325 29.272C181.033 29.272 181.549 28.906 181.873 28.174C182.209 27.442 182.377 26.278 182.377 24.682C182.377 23.23 182.221 22.108 181.909 21.316C181.597 20.524 181.063 20.128 180.307 20.128C179.587 20.128 179.065 20.5 178.741 21.244C178.429 21.988 178.273 23.134 178.273 24.682ZM186.146 24.682C186.146 22.474 186.524 20.836 187.28 19.768C188.036 18.688 189.122 18.148 190.538 18.148C192.05 18.148 193.16 18.682 193.868 19.75C194.576 20.806 194.93 22.45 194.93 24.682C194.93 26.902 194.546 28.552 193.778 29.632C193.022 30.712 191.936 31.252 190.52 31.252C189.02 31.252 187.916 30.688 187.208 29.56C186.5 28.42 186.146 26.794 186.146 24.682ZM188.486 24.682C188.486 26.146 188.642 27.28 188.954 28.084C189.278 28.876 189.806 29.272 190.538 29.272C191.246 29.272 191.762 28.906 192.086 28.174C192.422 27.442 192.59 26.278 192.59 24.682C192.59 23.23 192.434 22.108 192.122 21.316C191.81 20.524 191.276 20.128 190.52 20.128C189.8 20.128 189.278 20.5 188.954 21.244C188.642 21.988 188.486 23.134 188.486 24.682ZM196.359 24.682C196.359 22.474 196.737 20.836 197.493 19.768C198.249 18.688 199.335 18.148 200.751 18.148C202.263 18.148 203.373 18.682 204.081 19.75C204.789 20.806 205.143 22.45 205.143 24.682C205.143 26.902 204.759 28.552 203.991 29.632C203.235 30.712 202.149 31.252 200.733 31.252C199.233 31.252 198.129 30.688 197.421 29.56C196.713 28.42 196.359 26.794 196.359 24.682ZM198.699 24.682C198.699 26.146 198.855 27.28 199.167 28.084C199.491 28.876 200.019 29.272 200.751 29.272C201.459 29.272 201.975 28.906 202.299 28.174C202.635 27.442 202.803 26.278 202.803 24.682C202.803 23.23 202.647 22.108 202.335 21.316C202.023 20.524 201.489 20.128 200.733 20.128C200.013 20.128 199.491 20.5 199.167 21.244C198.855 21.988 198.699 23.134 198.699 24.682Z" fill="black"/>
<g opacity="0.3">
<path d="M257.953 33.286H256.981L256.711 31H249.943L249.673 33.286H248.701V29.74H249.763C249.859 29.608 249.985 29.374 250.141 29.038C250.297 28.69 250.447 28.21 250.591 27.598C250.747 26.974 250.879 26.206 250.987 25.294C251.107 24.37 251.179 23.272 251.203 22H256.639V29.74H257.953V33.286ZM255.199 29.74V23.26H252.499C252.475 23.764 252.433 24.316 252.373 24.916C252.313 25.504 252.229 26.098 252.121 26.698C252.025 27.286 251.899 27.844 251.743 28.372C251.587 28.9 251.407 29.356 251.203 29.74H255.199ZM259.232 26.5C259.232 24.976 259.568 23.812 260.24 23.008C260.924 22.192 261.902 21.784 263.174 21.784C263.846 21.784 264.428 21.898 264.92 22.126C265.424 22.342 265.838 22.66 266.162 23.08C266.486 23.488 266.726 23.986 266.882 24.574C267.038 25.15 267.116 25.792 267.116 26.5C267.116 28.024 266.774 29.194 266.09 30.01C265.418 30.814 264.446 31.216 263.174 31.216C262.502 31.216 261.914 31.108 261.41 30.892C260.918 30.664 260.51 30.346 260.186 29.938C259.862 29.518 259.622 29.02 259.466 28.444C259.31 27.856 259.232 27.208 259.232 26.5ZM260.726 26.5C260.726 26.956 260.768 27.394 260.852 27.814C260.948 28.234 261.092 28.6 261.284 28.912C261.476 29.224 261.728 29.476 262.04 29.668C262.352 29.86 262.73 29.956 263.174 29.956C264.806 29.968 265.622 28.816 265.622 26.5C265.622 26.032 265.574 25.588 265.478 25.168C265.394 24.748 265.256 24.382 265.064 24.07C264.872 23.758 264.62 23.512 264.308 23.332C263.996 23.14 263.618 23.044 263.174 23.044C261.542 23.032 260.726 24.184 260.726 26.5Z" fill="black"/>
</g>
</svg>
