<svg width="143" height="48" viewBox="0 0 143 48" fill="none" xmlns="http://www.w3.org/2000/svg">
<path d="M0 0H139C141.209 0 143 1.79086 143 4V44C143 46.2091 141.209 48 139 48H0V0Z" fill="#F2F2F2"/>
<path d="M20.81 22.342C20.81 21.73 20.9 21.166 21.08 20.65C21.272 20.134 21.542 19.696 21.89 19.336C22.25 18.964 22.682 18.676 23.186 18.472C23.702 18.256 24.29 18.148 24.95 18.148C26.306 18.148 27.368 18.556 28.136 19.372C28.916 20.176 29.306 21.352 29.306 22.9C29.306 24.292 29.126 25.498 28.766 26.518C28.418 27.526 27.944 28.372 27.344 29.056C26.756 29.728 26.072 30.244 25.292 30.604C24.512 30.964 23.69 31.18 22.826 31.252L22.322 29.416C22.982 29.332 23.57 29.17 24.086 28.93C24.602 28.69 25.046 28.396 25.418 28.048C25.79 27.688 26.09 27.286 26.318 26.842C26.558 26.386 26.726 25.9 26.822 25.384C26.534 25.696 26.222 25.912 25.886 26.032C25.562 26.152 25.124 26.212 24.572 26.212C24.116 26.212 23.66 26.134 23.204 25.978C22.76 25.822 22.358 25.588 21.998 25.276C21.65 24.952 21.362 24.55 21.134 24.07C20.918 23.578 20.81 23.002 20.81 22.342ZM23.078 22.216C23.078 22.9 23.27 23.416 23.654 23.764C24.038 24.112 24.518 24.286 25.094 24.286C25.586 24.286 25.988 24.208 26.3 24.052C26.612 23.896 26.852 23.704 27.02 23.476C27.056 23.224 27.074 22.984 27.074 22.756C27.074 22.42 27.032 22.09 26.948 21.766C26.864 21.442 26.732 21.154 26.552 20.902C26.384 20.65 26.162 20.452 25.886 20.308C25.622 20.152 25.304 20.074 24.932 20.074C24.344 20.074 23.888 20.266 23.564 20.65C23.24 21.022 23.078 21.544 23.078 22.216ZM30.9329 24.682C30.9329 22.474 31.3109 20.836 32.0669 19.768C32.8229 18.688 33.9089 18.148 35.3249 18.148C36.8369 18.148 37.9469 18.682 38.6549 19.75C39.3629 20.806 39.7169 22.45 39.7169 24.682C39.7169 26.902 39.3329 28.552 38.5649 29.632C37.8089 30.712 36.7229 31.252 35.3069 31.252C33.8069 31.252 32.7029 30.688 31.9949 29.56C31.2869 28.42 30.9329 26.794 30.9329 24.682ZM33.2729 24.682C33.2729 26.146 33.4289 27.28 33.7409 28.084C34.0649 28.876 34.5929 29.272 35.3249 29.272C36.0329 29.272 36.5489 28.906 36.8729 28.174C37.2089 27.442 37.3769 26.278 37.3769 24.682C37.3769 23.23 37.2209 22.108 36.9089 21.316C36.5969 20.524 36.0629 20.128 35.3069 20.128C34.5869 20.128 34.0649 20.5 33.7409 21.244C33.4289 21.988 33.2729 23.134 33.2729 24.682ZM41.1458 24.682C41.1458 22.474 41.5238 20.836 42.2798 19.768C43.0358 18.688 44.1218 18.148 45.5378 18.148C47.0498 18.148 48.1598 18.682 48.8678 19.75C49.5758 20.806 49.9298 22.45 49.9298 24.682C49.9298 26.902 49.5458 28.552 48.7778 29.632C48.0218 30.712 46.9358 31.252 45.5198 31.252C44.0198 31.252 42.9158 30.688 42.2078 29.56C41.4998 28.42 41.1458 26.794 41.1458 24.682ZM43.4858 24.682C43.4858 26.146 43.6418 27.28 43.9538 28.084C44.2778 28.876 44.8058 29.272 45.5378 29.272C46.2458 29.272 46.7618 28.906 47.0858 28.174C47.4218 27.442 47.5898 26.278 47.5898 24.682C47.5898 23.23 47.4338 22.108 47.1218 21.316C46.8098 20.524 46.2758 20.128 45.5198 20.128C44.7998 20.128 44.2778 20.5 43.9538 21.244C43.6418 21.988 43.4858 23.134 43.4858 24.682ZM51.3587 24.682C51.3587 22.474 51.7367 20.836 52.4927 19.768C53.2487 18.688 54.3347 18.148 55.7507 18.148C57.2627 18.148 58.3727 18.682 59.0807 19.75C59.7887 20.806 60.1427 22.45 60.1427 24.682C60.1427 26.902 59.7587 28.552 58.9907 29.632C58.2347 30.712 57.1487 31.252 55.7327 31.252C54.2327 31.252 53.1287 30.688 52.4207 29.56C51.7127 28.42 51.3587 26.794 51.3587 24.682ZM53.6987 24.682C53.6987 26.146 53.8547 27.28 54.1667 28.084C54.4907 28.876 55.0187 29.272 55.7507 29.272C56.4587 29.272 56.9747 28.906 57.2987 28.174C57.6347 27.442 57.8027 26.278 57.8027 24.682C57.8027 23.23 57.6467 22.108 57.3347 21.316C57.0227 20.524 56.4887 20.128 55.7327 20.128C55.0127 20.128 54.4907 20.5 54.1667 21.244C53.8547 21.988 53.6987 23.134 53.6987 24.682Z" fill="black"/>
<g opacity="0.3">
<path d="M112.953 33.286H111.981L111.711 31H104.943L104.673 33.286H103.701V29.74H104.763C104.859 29.608 104.985 29.374 105.141 29.038C105.297 28.69 105.447 28.21 105.591 27.598C105.747 26.974 105.879 26.206 105.987 25.294C106.107 24.37 106.179 23.272 106.203 22H111.639V29.74H112.953V33.286ZM110.199 29.74V23.26H107.499C107.475 23.764 107.433 24.316 107.373 24.916C107.313 25.504 107.229 26.098 107.121 26.698C107.025 27.286 106.899 27.844 106.743 28.372C106.587 28.9 106.407 29.356 106.203 29.74H110.199ZM114.232 26.5C114.232 24.976 114.568 23.812 115.24 23.008C115.924 22.192 116.902 21.784 118.174 21.784C118.846 21.784 119.428 21.898 119.92 22.126C120.424 22.342 120.838 22.66 121.162 23.08C121.486 23.488 121.726 23.986 121.882 24.574C122.038 25.15 122.116 25.792 122.116 26.5C122.116 28.024 121.774 29.194 121.09 30.01C120.418 30.814 119.446 31.216 118.174 31.216C117.502 31.216 116.914 31.108 116.41 30.892C115.918 30.664 115.51 30.346 115.186 29.938C114.862 29.518 114.622 29.02 114.466 28.444C114.31 27.856 114.232 27.208 114.232 26.5ZM115.726 26.5C115.726 26.956 115.768 27.394 115.852 27.814C115.948 28.234 116.092 28.6 116.284 28.912C116.476 29.224 116.728 29.476 117.04 29.668C117.352 29.86 117.73 29.956 118.174 29.956C119.806 29.968 120.622 28.816 120.622 26.5C120.622 26.032 120.574 25.588 120.478 25.168C120.394 24.748 120.256 24.382 120.064 24.07C119.872 23.758 119.62 23.512 119.308 23.332C118.996 23.14 118.618 23.044 118.174 23.044C116.542 23.032 115.726 24.184 115.726 26.5Z" fill="black"/>
</g>
</svg>
